<?xml version="1.0" encoding="UTF-8"?>
<svg version="1.1" xmlns="http://www.w3.org/2000/svg" width="40" height="40">
<path d="M0 0 C1.20849609 0.00644531 2.41699219 0.01289062 3.66210938 0.01953125 C5.55606445 0.04466797 5.55606445 0.04466797 7.48828125 0.0703125 C8.76251953 0.07933594 10.03675781 0.08835938 11.34960938 0.09765625 C14.50018752 0.12125609 17.65039108 0.15418056 20.80078125 0.1953125 C20.80078125 0.8553125 20.80078125 1.5153125 20.80078125 2.1953125 C21.72890625 2.35 21.72890625 2.35 22.67578125 2.5078125 C24.80078125 3.1953125 24.80078125 3.1953125 26.80078125 6.1953125 C27.27330732 10.82646505 27.17114023 15.48018771 27.17578125 20.1328125 C27.20027344 21.42123047 27.22476563 22.70964844 27.25 24.03710938 C27.25580078 25.89239258 27.25580078 25.89239258 27.26171875 27.78515625 C27.26993652 28.91816162 27.2781543 30.05116699 27.28662109 31.21850586 C26.69294984 34.85601017 25.64026721 35.92712778 22.80078125 38.1953125 C17.95360299 41.42676467 12.62243234 40.52320885 6.92578125 40.5078125 C5.74113281 40.52392578 4.55648438 40.54003906 3.3359375 40.55664062 C2.19253906 40.55728516 1.04914062 40.55792969 -0.12890625 40.55859375 C-1.17288574 40.56157471 -2.21686523 40.56455566 -3.29248047 40.56762695 C-6.65092463 40.13745499 -8.49226798 39.20212891 -11.19921875 37.1953125 C-14.49808846 32.24700793 -13.568175 26.63439704 -13.57421875 20.8203125 C-13.59871094 19.58796875 -13.62320312 18.355625 -13.6484375 17.0859375 C-13.65230469 15.89742187 -13.65617188 14.70890625 -13.66015625 13.484375 C-13.66837402 12.39850098 -13.6765918 11.31262695 -13.68505859 10.19384766 C-13.08367929 6.48221918 -11.78941989 4.87339651 -9.19921875 2.1953125 C-5.6590865 -0.16477567 -4.1879992 -0.03932394 0 0 Z " fill="#2E9C34" transform="translate(13.19921875,-0.1953125)"/>
<path d="M0 0 C3.899215 1.66410013 6.60571252 3.40856877 9 7 C9.26661227 11.13249019 9.44080635 13.92247336 7.875 17.75 C6.70825014 20.007744 6.70825014 20.007744 7.875 22.3125 C8.24625 22.869375 8.6175 23.42625 9 24 C8.195625 23.979375 7.39125 23.95875 6.5625 23.9375 C4.06645115 23.70366379 4.06645115 23.70366379 3 25 C4.98 25.33 6.96 25.66 9 26 C9 26.66 9 27.32 9 28 C5.29583874 30.37590142 2.07015427 30.20500286 -2.25 30.125 C-3.51328125 30.10695313 -4.7765625 30.08890625 -6.078125 30.0703125 C-7.04234375 30.04710938 -8.0065625 30.02390625 -9 30 C-9.33 28.35 -9.66 26.7 -10 25 C-8.02 24.34 -6.04 23.68 -4 23 C-4.9075 22.79375 -5.815 22.5875 -6.75 22.375 C-10.89191189 20.62265266 -12.03255027 19.01057061 -14 15 C-14.47290668 11.14918846 -14.35025658 8.8111205 -12.8125 5.25 C-9.2133241 0.7820575 -5.71084156 -0.79951782 0 0 Z " fill="#09692B" transform="translate(22,9)"/>
<path d="M0 0 C1.1446875 0.3403125 1.1446875 0.3403125 2.3125 0.6875 C1.04296875 2.18489583 -0.2265625 3.68229167 -1.49609375 5.1796875 C-4.19859208 8.5998985 -4.04429318 11.40598182 -3.6875 15.6875 C-2.22540702 19.13113894 -2.22540702 19.13113894 0.3125 21.6875 C3.44515479 22.6563059 3.44515479 22.6563059 6.3125 22.6875 C5.6525 23.6775 4.9925 24.6675 4.3125 25.6875 C1.6875 25.875 1.6875 25.875 -0.6875 25.6875 C-0.3575 27.0075 -0.0275 28.3275 0.3125 29.6875 C2.56243359 29.71457139 4.81246095 29.73392829 7.0625 29.75 C8.94195313 29.76740234 8.94195313 29.76740234 10.859375 29.78515625 C13.59786501 29.70771027 15.73130293 29.51530815 18.3125 28.6875 C18.3125 28.0275 18.3125 27.3675 18.3125 26.6875 C16.0025 26.6875 13.6925 26.6875 11.3125 26.6875 C11.6425 25.3675 11.9725 24.0475 12.3125 22.6875 C13.9625 23.0175 15.6125 23.3475 17.3125 23.6875 C16.920625 22.965625 16.52875 22.24375 16.125 21.5 C15.3125 18.6875 15.3125 18.6875 16.5625 16.125 C17.42875 14.9184375 17.42875 14.9184375 18.3125 13.6875 C18.8384375 12.6046875 18.8384375 12.6046875 19.375 11.5 C20.3125 9.6875 20.3125 9.6875 22.3125 7.6875 C23.3125 8.6875 23.3125 8.6875 23.4375 12.5 C23.40651243 15.37667975 23.22992334 17.93522999 22.3125 20.6875 C23.9625 21.0175 25.6125 21.3475 27.3125 21.6875 C27.14111379 25.45799669 26.820741 27.19345072 24.07421875 29.86328125 C19.03980684 32.98617583 12.9583852 32.22271394 7.25 32.125 C5.49333008 32.13563477 5.49333008 32.13563477 3.70117188 32.14648438 C-6.09420245 32.07384326 -6.09420245 32.07384326 -10.6875 28.6875 C-12.89664 25.37379 -12.91231553 24.3428979 -12.8125 20.5 C-12.79445313 19.59894531 -12.77640625 18.69789062 -12.7578125 17.76953125 C-12.73460937 17.08246094 -12.71140625 16.39539063 -12.6875 15.6875 C-11.6975 15.6875 -10.7075 15.6875 -9.6875 15.6875 C-9.584375 14.841875 -9.48125 13.99625 -9.375 13.125 C-8.45951692 8.54758461 -6.96711397 4.54875669 -4.3125 0.6875 C-2.6875 -0.3125 -2.6875 -0.3125 0 0 Z " fill="#156846" transform="translate(12.6875,8.3125)"/>
<path d="M0 0 C1.20849609 0.00644531 2.41699219 0.01289062 3.66210938 0.01953125 C5.55606445 0.04466797 5.55606445 0.04466797 7.48828125 0.0703125 C8.76251953 0.07933594 10.03675781 0.08835938 11.34960938 0.09765625 C14.50018752 0.12125609 17.65039108 0.15418056 20.80078125 0.1953125 C20.80078125 0.8553125 20.80078125 1.5153125 20.80078125 2.1953125 C21.79078125 2.5253125 22.78078125 2.8553125 23.80078125 3.1953125 C23.80078125 4.1853125 23.80078125 5.1753125 23.80078125 6.1953125 C22.45330811 6.2250415 22.45330811 6.2250415 21.07861328 6.25537109 C17.74988047 6.33340511 14.42160869 6.42009364 11.09326172 6.51269531 C9.65194385 6.55100924 8.21052957 6.58585793 6.76904297 6.6171875 C4.69854239 6.66278696 2.62870692 6.72078694 0.55859375 6.78125 C-0.68776855 6.8126709 -1.93413086 6.8440918 -3.21826172 6.87646484 C-6.31463651 6.89213559 -6.31463651 6.89213559 -8.19921875 9.1953125 C-8.66495505 11.75398724 -9.03406123 14.24219158 -9.32421875 16.8203125 C-9.41058594 17.52671875 -9.49695313 18.233125 -9.5859375 18.9609375 C-9.79803058 20.70481391 -9.99962866 22.4499609 -10.19921875 24.1953125 C-11.18921875 24.1953125 -12.17921875 24.1953125 -13.19921875 24.1953125 C-13.30758545 21.4650736 -13.38668569 18.73916707 -13.44921875 16.0078125 C-13.48273437 15.23888672 -13.51625 14.46996094 -13.55078125 13.67773438 C-13.6188274 9.71404625 -13.52180195 7.71158347 -11.37109375 4.26953125 C-7.4648777 0.53895441 -5.29384491 -0.04970746 0 0 Z " fill="#CCDFBB" transform="translate(13.19921875,-0.1953125)"/>
<path d="M0 0 C3.899215 1.66410013 6.60571252 3.40856877 9 7 C9.26661227 11.13249019 9.44080635 13.92247336 7.875 17.75 C6.70825014 20.007744 6.70825014 20.007744 7.875 22.3125 C8.24625 22.869375 8.6175 23.42625 9 24 C6.75 24.375 6.75 24.375 4 24 C0 19.02702703 0 19.02702703 0 16 C1.32 15.34 2.64 14.68 4 14 C4.41780879 11.62694422 4.41780879 11.62694422 4 9 C1.15089874 6.48608713 -0.38033863 5.97569955 -4.1875 6.125 C-7.30148891 6.77005187 -7.30148891 6.77005187 -9 10 C-8.78114866 12.91801787 -8.53098234 14.46901766 -6.4375 16.5625 C-5.963125 17.036875 -5.48875 17.51125 -5 18 C-5 19.32 -5 20.64 -5 22 C-7.25 21.875 -7.25 21.875 -10 21 C-12.83328184 17.78384224 -13.91339292 15.7052291 -14.4375 11.4375 C-13.82405761 6.61759551 -12.5070454 4.18119775 -8.6875 1.1875 C-5.40414567 -0.26328447 -3.56349635 -0.49888949 0 0 Z " fill="#F0F6F1" transform="translate(22,9)"/>
<path d="M0 0 C1.1446875 0.3403125 1.1446875 0.3403125 2.3125 0.6875 C1.04296875 2.18489583 -0.2265625 3.68229167 -1.49609375 5.1796875 C-4.19859208 8.5998985 -4.04429318 11.40598182 -3.6875 15.6875 C-1.57987617 19.60165855 0.56911528 22.28103839 4.3125 24.6875 C-0.93305629 25.12462969 -0.93305629 25.12462969 -3.6875 24.6875 C-7.16185368 21.30223231 -8.61076904 18.81928161 -8.9375 14 C-8.87133725 8.80149799 -7.26990619 4.98918174 -4.3125 0.6875 C-2.6875 -0.3125 -2.6875 -0.3125 0 0 Z " fill="#10833B" transform="translate(12.6875,8.3125)"/>
<path d="M0 0 C0.66 0.33 1.32 0.66 2 1 C2.13163065 8.8978389 2.13163065 8.8978389 1 13 C1 13.886875 1 14.77375 1 15.6875 C1 16.450625 1 17.21375 1 18 C0 19 0 19 -2.28515625 19.09765625 C-3.65994141 19.08025391 -3.65994141 19.08025391 -5.0625 19.0625 C-5.98160156 19.05347656 -6.90070312 19.04445313 -7.84765625 19.03515625 C-8.55792969 19.02355469 -9.26820312 19.01195313 -10 19 C-9.67 17.68 -9.34 16.36 -9 15 C-7.35 15.33 -5.7 15.66 -4 16 C-4.391875 15.278125 -4.78375 14.55625 -5.1875 13.8125 C-6 11 -6 11 -4.75 8.4375 C-4.1725 7.633125 -3.595 6.82875 -3 6 C-2.31822584 4.67432801 -1.64808564 3.34246312 -1 2 C-0.67 1.34 -0.34 0.68 0 0 Z " fill="#08671F" transform="translate(34,16)"/>
<path d="M0 0 C0 6.6 0 13.2 0 20 C-1.65 20 -3.3 20 -5 20 C-5.33 19.01 -5.66 18.02 -6 17 C-5.67 16.34 -5.34 15.68 -5 15 C-5.00879417 11.94402655 -5.13167563 8.90091044 -5.2578125 5.84765625 C-5 3 -5 3 -3.6171875 1.12109375 C-2 0 -2 0 0 0 Z " fill="#1EAC4A" transform="translate(40,10)"/>
<path d="M0 0 C1.5 1.25 1.5 1.25 3 3 C3 4.32 3 5.64 3 7 C2.38125 7.45375 1.7625 7.9075 1.125 8.375 C-1.70034164 10.53555537 -1.95663298 12.66122554 -3 16 C-4.625 17.875 -4.625 17.875 -6 19 C-6.433125 17.39125 -6.433125 17.39125 -6.875 15.75 C-7.72820109 12.90599636 -8.5636503 10.56491017 -10 8 C-8.68 8 -7.36 8 -6 8 C-5.7525 7.360625 -5.505 6.72125 -5.25 6.0625 C-4 4 -4 4 -1.875 3.25 C-1.25625 3.1675 -0.6375 3.085 0 3 C0 2.01 0 1.02 0 0 Z " fill="#259E46" transform="translate(37,3)"/>
<path d="M0 0 C0.33 0.66 0.66 1.32 1 2 C1.99 2.33 2.98 2.66 4 3 C3.01 4.485 3.01 4.485 2 6 C1.5437208 8.57713254 1.17054724 11.09298285 0.875 13.6875 C0.78863281 14.38939453 0.70226562 15.09128906 0.61328125 15.81445312 C0.40173125 17.54211145 0.199914 19.2709566 0 21 C-0.99 21 -1.98 21 -3 21 C-3.08107646 18.24940619 -3.14052813 15.50120979 -3.1875 12.75 C-3.21263672 11.97269531 -3.23777344 11.19539062 -3.26367188 10.39453125 C-3.33834499 4.57002825 -3.33834499 4.57002825 -1.48828125 1.453125 C-0.99714844 0.97359375 -0.50601562 0.4940625 0 0 Z " fill="#9CD07C" transform="translate(3,3)"/>
<path d="M0 0 C0.66 2.31 1.32 4.62 2 7 C-1.51187196 9.40814077 -3.72656908 10.36629408 -8 10 C-8.8125 7.8125 -8.8125 7.8125 -9 5 C-5.9742869 1.10979744 -5.04048781 0 0 0 Z " fill="#40A14F" transform="translate(21,14)"/>
<path d="M0 0 C6.27 0.33 12.54 0.66 19 1 C19 1.66 19 2.32 19 3 C15.29583874 5.37590142 12.07015427 5.20500286 7.75 5.125 C6.48671875 5.10695313 5.2234375 5.08890625 3.921875 5.0703125 C2.95765625 5.04710937 1.9934375 5.02390625 1 5 C0.67 3.35 0.34 1.7 0 0 Z " fill="#17A259" transform="translate(12,34)"/>
<path d="M0 0 C2.8992226 0.46761655 3.86675182 0.86675182 6 3 C6.125 5.625 6.125 5.625 6 8 C4.35 8.66 2.7 9.32 1 10 C1.33 10.99 1.66 11.98 2 13 C1.01 13.495 1.01 13.495 0 14 C0 12.68 0 11.36 0 10 C-0.66 9.67 -1.32 9.34 -2 9 C-2 8.34 -2 7.68 -2 7 C-0.68 6.67 0.64 6.34 2 6 C1.65213292 4.02463255 1.65213292 4.02463255 1 2 C0.34 1.67 -0.32 1.34 -1 1 C-0.67 0.67 -0.34 0.34 0 0 Z " fill="#24A638" transform="translate(21,15)"/>
<path d="M0 0 C1.32 0 2.64 0 4 0 C4 0.66 4 1.32 4 2 C4.99 2.33 5.98 2.66 7 3 C7 3.99 7 4.98 7 6 C-2.57 6 -12.14 6 -22 6 C-22 5.67 -22 5.34 -22 5 C-14.08 5 -6.16 5 2 5 C2 4.34 2 3.68 2 3 C1.01 2.67 0.02 2.34 -1 2 C-0.67 1.34 -0.34 0.68 0 0 Z " fill="#7CC76E" transform="translate(30,0)"/>
<path d="M0 0 C1.65 0 3.3 0 5 0 C4.6875 2.875 4.6875 2.875 4 6 C0.91111478 8.05925681 0.29064073 8.2390374 -3.1875 8.125 C-5.0746875 8.063125 -5.0746875 8.063125 -7 8 C-6.01 7.67 -5.02 7.34 -4 7 C-4 6.34 -4 5.68 -4 5 C-3.01 4.67 -2.02 4.34 -1 4 C-0.26676204 1.98491642 -0.26676204 1.98491642 0 0 Z " fill="#0B7140" transform="translate(35,30)"/>
<path d="M0 0 C1.65 0.33 3.3 0.66 5 1 C-0.28571429 7.42857143 -0.28571429 7.42857143 -3 10 C-3.66 8.68 -4.32 7.36 -5 6 C-3.35 4.02 -1.7 2.04 0 0 Z " fill="#268338" transform="translate(10,8)"/>
<path d="M0 0 C-1.1875 2.4375 -1.1875 2.4375 -3 5 C-5.5625 5.875 -5.5625 5.875 -8 6 C-8.66 5.67 -9.32 5.34 -10 5 C-10.625 2.9375 -10.625 2.9375 -11 1 C-7.26562152 0.12132271 -3.83225427 -0.08912219 0 0 Z " fill="#50D129" transform="translate(34,6)"/>
<path d="M0 0 C0.14285714 7.42857143 0.14285714 7.42857143 -1 11 C-1.99 11 -2.98 11 -4 11 C-4 7.7 -4 4.4 -4 1 C-1 0 -1 0 0 0 Z " fill="#7BCC83" transform="translate(4,13)"/>
<path d="M0 0 C5.28 0 10.56 0 16 0 C16 0.33 16 0.66 16 1 C13.71022755 1.52909886 11.41810812 2.04805019 9.125 2.5625 C7.21074219 2.99755859 7.21074219 2.99755859 5.2578125 3.44140625 C2 4 2 4 0 3 C0 2.01 0 1.02 0 0 Z " fill="#DDEAD2" transform="translate(4,2)"/>
<path d="M0 0 C2.31 0 4.62 0 7 0 C7.33 2.31 7.66 4.62 8 7 C6.35 7 4.7 7 3 7 C3 6.01 3 5.02 3 4 C2.01 3.67 1.02 3.34 0 3 C0 2.01 0 1.02 0 0 Z " fill="#128133" transform="translate(14,23)"/>
<path d="M0 0 C0.66 0.33 1.32 0.66 2 1 C2 5.95 2 10.9 2 16 C0.35 16 -1.3 16 -3 16 C-2.34 15.34 -1.68 14.68 -1 14 C-0.69940057 11.63490639 -0.50484988 9.25558119 -0.375 6.875 C-0.30023438 5.59367187 -0.22546875 4.31234375 -0.1484375 2.9921875 C-0.09945312 2.00476563 -0.05046875 1.01734375 0 0 Z " fill="#15B05B" transform="translate(38,14)"/>
<path d="M0 0 C0.33 0 0.66 0 1 0 C1 2.31 1 4.62 1 7 C-0.98 7.99 -0.98 7.99 -3 9 C-3.99 7.35 -4.98 5.7 -6 4 C-4.68 4 -3.36 4 -2 4 C-1.34 2.68 -0.68 1.36 0 0 Z " fill="#28A428" transform="translate(33,7)"/>
<path d="M0 0 C0.33 0 0.66 0 1 0 C1.16682272 4.92127034 1.24828052 8.50343896 -1 13 C-1.66 12.67 -2.32 12.34 -3 12 C-3 9.36 -3 6.72 -3 4 C-2.01 4 -1.02 4 0 4 C0 2.68 0 1.36 0 0 Z " fill="#227C5F" transform="translate(3,20)"/>
<path d="M0 0 C0.70769531 0.47566406 1.41539063 0.95132812 2.14453125 1.44140625 C2.85996094 1.91449219 3.57539063 2.38757813 4.3125 2.875 C4.85519531 3.24753906 5.39789063 3.62007812 5.95703125 4.00390625 C2.95528901 5.004487 1.08117439 5.31632056 -2.04296875 5.00390625 C-3.85546875 3.62890625 -3.85546875 3.62890625 -5.04296875 2.00390625 C-5.04296875 1.34390625 -5.04296875 0.68390625 -5.04296875 0.00390625 C-2.04296875 -0.99609375 -2.04296875 -0.99609375 0 0 Z " fill="#09632C" transform="translate(11.04296875,27.99609375)"/>
<path d="M0 0 C2.31 0.66 4.62 1.32 7 2 C7 2.66 7 3.32 7 4 C2.61538462 7 2.61538462 7 0 7 C0 4.69 0 2.38 0 0 Z " fill="#F3F8F4" transform="translate(16,17)"/>
<path d="M0 0 C0.99 0 1.98 0 3 0 C2.67 2.97 2.34 5.94 2 9 C0.68 9.33 -0.64 9.66 -2 10 C-1.34 6.7 -0.68 3.4 0 0 Z " fill="#06B72A" transform="translate(36,19)"/>
<path d="M0 0 C0.66 0.33 1.32 0.66 2 1 C2 3.64 2 6.28 2 9 C1.34 8.34 0.68 7.68 0 7 C-0.99 6.67 -1.98 6.34 -3 6 C-2 4 -1 2 0 0 Z " fill="#0B8B25" transform="translate(34,16)"/>
<path d="M0 0 C0.33 0 0.66 0 1 0 C1.35050464 5.841744 1.16727335 9.8531808 -2 15 C-2.33 15 -2.66 15 -3 15 C-3 12.69 -3 10.38 -3 8 C-2.34 7.67 -1.68 7.34 -1 7 C-0.59270772 4.67843403 -0.25561323 2.3431213 0 0 Z " fill="#209A34" transform="translate(34,7)"/>
<path d="M0 0 C0.66 0.66 1.32 1.32 2 2 C-1 3 -1 3 -3.4375 2.375 C-6.08245127 1.70641485 -6.08245127 1.70641485 -8.3125 3.4375 C-8.869375 3.953125 -9.42625 4.46875 -10 5 C-9.625 3.0625 -9.625 3.0625 -9 1 C-5.98675805 -0.50662097 -3.31713623 -0.17770373 0 0 Z " fill="#3B9943" transform="translate(16,7)"/>
<path d="M0 0 C1.32 0 2.64 0 4 0 C4 0.66 4 1.32 4 2 C4.99 2.33 5.98 2.66 7 3 C7 3.66 7 4.32 7 5 C6.01 5 5.02 5 4 5 C4 4.34 4 3.68 4 3 C2.35 3 0.7 3 -1 3 C-0.67 2.01 -0.34 1.02 0 0 Z " fill="#A2C68D" transform="translate(30,0)"/>
<path d="M0 0 C1.65 0 3.3 0 5 0 C5 0.66 5 1.32 5 2 C4.01 2.495 4.01 2.495 3 3 C2.01 4.485 2.01 4.485 1 6 C0.34 5.34 -0.32 4.68 -1 4 C-0.625 1.875 -0.625 1.875 0 0 Z " fill="#088A47" transform="translate(35,30)"/>
<path d="M0 0 C0.66 0.33 1.32 0.66 2 1 C2 2.65 2 4.3 2 6 C0.68 6.33 -0.64 6.66 -2 7 C-1.34 4.69 -0.68 2.38 0 0 Z " fill="#038126" transform="translate(33,28)"/>
<path d="M0 0 C0.66 0 1.32 0 2 0 C2 1.98 2 3.96 2 6 C1.01 6 0.02 6 -1 6 C-0.67 4.02 -0.34 2.04 0 0 Z " fill="#2D9044" transform="translate(13,17)"/>
</svg>
